<mxfile host="app.diagrams.net" agent="Mozilla/5.0 (Windows NT 10.0; Win64; x64) AppleWebKit/537.36 (KHTML, like Gecko) Chrome/134.0.0.0 Safari/537.36" version="26.2.4">
  <diagram id="C5RBs43oDa-KdzZeNtuy" name="Page-1">
    <mxGraphModel dx="1428" dy="743" grid="1" gridSize="10" guides="1" tooltips="1" connect="1" arrows="1" fold="1" page="1" pageScale="1" pageWidth="827" pageHeight="1169" math="0" shadow="0">
      <root>
        <mxCell id="WIyWlLk6GJQsqaUBKTNV-0" />
        <mxCell id="WIyWlLk6GJQsqaUBKTNV-1" parent="WIyWlLk6GJQsqaUBKTNV-0" />
        <mxCell id="I9n1Xz8z1GgVRIbq50Ev-0" value="Usuário acessa o sistema" style="rounded=1;whiteSpace=wrap;html=1;fillColor=#dae8fc;strokeColor=#6c8ebf;" vertex="1" parent="WIyWlLk6GJQsqaUBKTNV-1">
          <mxGeometry x="190" y="140" width="180" height="60" as="geometry" />
        </mxCell>
        <mxCell id="I9n1Xz8z1GgVRIbq50Ev-1" value="Tela de Cadastro de Repositórios Git" style="rounded=1;whiteSpace=wrap;html=1;fillColor=#d5e8d4;strokeColor=#82b366;" vertex="1" parent="WIyWlLk6GJQsqaUBKTNV-1">
          <mxGeometry x="190" y="240" width="220" height="60" as="geometry" />
        </mxCell>
        <mxCell id="I9n1Xz8z1GgVRIbq50Ev-2" value="Usuário cadastra repositório Git" style="rounded=1;whiteSpace=wrap;html=1;fillColor=#fff2cc;strokeColor=#d6b656;" vertex="1" parent="WIyWlLk6GJQsqaUBKTNV-1">
          <mxGeometry x="190" y="340" width="200" height="60" as="geometry" />
        </mxCell>
        <mxCell id="I9n1Xz8z1GgVRIbq50Ev-3" value="Tela de Cadastro de Docker" style="rounded=1;whiteSpace=wrap;html=1;fillColor=#d5e8d4;strokeColor=#82b366;" vertex="1" parent="WIyWlLk6GJQsqaUBKTNV-1">
          <mxGeometry x="490" y="240" width="200" height="60" as="geometry" />
        </mxCell>
        <mxCell id="I9n1Xz8z1GgVRIbq50Ev-4" value="Usuário cadastra container Docker" style="rounded=1;whiteSpace=wrap;html=1;fillColor=#fff2cc;strokeColor=#d6b656;" vertex="1" parent="WIyWlLk6GJQsqaUBKTNV-1">
          <mxGeometry x="490" y="340" width="220" height="60" as="geometry" />
        </mxCell>
        <mxCell id="I9n1Xz8z1GgVRIbq50Ev-5" value="Associação do repositório com Docker selecionado" style="rounded=1;whiteSpace=wrap;html=1;fillColor=#e1d5e7;strokeColor=#9673a6;" vertex="1" parent="WIyWlLk6GJQsqaUBKTNV-1">
          <mxGeometry x="190" y="440" width="320" height="60" as="geometry" />
        </mxCell>
        <mxCell id="I9n1Xz8z1GgVRIbq50Ev-6" value="Executa Git Clone via SSH no Docker" style="rounded=1;whiteSpace=wrap;html=1;fillColor=#f8cecc;strokeColor=#b85450;" vertex="1" parent="WIyWlLk6GJQsqaUBKTNV-1">
          <mxGeometry x="190" y="540" width="280" height="60" as="geometry" />
        </mxCell>
        <mxCell id="I9n1Xz8z1GgVRIbq50Ev-7" value="Executa docker-compose no Docker" style="rounded=1;whiteSpace=wrap;html=1;fillColor=#f8cecc;strokeColor=#b85450;" vertex="1" parent="WIyWlLk6GJQsqaUBKTNV-1">
          <mxGeometry x="190" y="640" width="280" height="60" as="geometry" />
        </mxCell>
        <mxCell id="I9n1Xz8z1GgVRIbq50Ev-8" value="Serviço iniciado e monitorado" style="rounded=1;whiteSpace=wrap;html=1;fillColor=#d9ead3;strokeColor=#6aa84f;" vertex="1" parent="WIyWlLk6GJQsqaUBKTNV-1">
          <mxGeometry x="190" y="740" width="240" height="60" as="geometry" />
        </mxCell>
        <mxCell id="I9n1Xz8z1GgVRIbq50Ev-9" style="edgeStyle=orthogonalEdgeStyle;rounded=0;orthogonalLoop=1;jettySize=auto;html=1;" edge="1" parent="WIyWlLk6GJQsqaUBKTNV-1" source="I9n1Xz8z1GgVRIbq50Ev-0" target="I9n1Xz8z1GgVRIbq50Ev-1">
          <mxGeometry relative="1" as="geometry" />
        </mxCell>
        <mxCell id="I9n1Xz8z1GgVRIbq50Ev-10" style="edgeStyle=orthogonalEdgeStyle;rounded=0;orthogonalLoop=1;jettySize=auto;html=1;" edge="1" parent="WIyWlLk6GJQsqaUBKTNV-1" source="I9n1Xz8z1GgVRIbq50Ev-0" target="I9n1Xz8z1GgVRIbq50Ev-3">
          <mxGeometry relative="1" as="geometry" />
        </mxCell>
        <mxCell id="I9n1Xz8z1GgVRIbq50Ev-11" style="edgeStyle=orthogonalEdgeStyle;rounded=0;orthogonalLoop=1;jettySize=auto;html=1;" edge="1" parent="WIyWlLk6GJQsqaUBKTNV-1" source="I9n1Xz8z1GgVRIbq50Ev-1" target="I9n1Xz8z1GgVRIbq50Ev-2">
          <mxGeometry relative="1" as="geometry" />
        </mxCell>
        <mxCell id="I9n1Xz8z1GgVRIbq50Ev-12" style="edgeStyle=orthogonalEdgeStyle;rounded=0;orthogonalLoop=1;jettySize=auto;html=1;" edge="1" parent="WIyWlLk6GJQsqaUBKTNV-1" source="I9n1Xz8z1GgVRIbq50Ev-3" target="I9n1Xz8z1GgVRIbq50Ev-4">
          <mxGeometry relative="1" as="geometry" />
        </mxCell>
        <mxCell id="I9n1Xz8z1GgVRIbq50Ev-13" style="edgeStyle=orthogonalEdgeStyle;rounded=0;orthogonalLoop=1;jettySize=auto;html=1;" edge="1" parent="WIyWlLk6GJQsqaUBKTNV-1" source="I9n1Xz8z1GgVRIbq50Ev-2" target="I9n1Xz8z1GgVRIbq50Ev-5">
          <mxGeometry relative="1" as="geometry" />
        </mxCell>
        <mxCell id="I9n1Xz8z1GgVRIbq50Ev-14" style="edgeStyle=orthogonalEdgeStyle;rounded=0;orthogonalLoop=1;jettySize=auto;html=1;" edge="1" parent="WIyWlLk6GJQsqaUBKTNV-1" source="I9n1Xz8z1GgVRIbq50Ev-4" target="I9n1Xz8z1GgVRIbq50Ev-5">
          <mxGeometry relative="1" as="geometry" />
        </mxCell>
        <mxCell id="I9n1Xz8z1GgVRIbq50Ev-15" style="edgeStyle=orthogonalEdgeStyle;rounded=0;orthogonalLoop=1;jettySize=auto;html=1;" edge="1" parent="WIyWlLk6GJQsqaUBKTNV-1" source="I9n1Xz8z1GgVRIbq50Ev-5" target="I9n1Xz8z1GgVRIbq50Ev-6">
          <mxGeometry relative="1" as="geometry" />
        </mxCell>
        <mxCell id="I9n1Xz8z1GgVRIbq50Ev-16" style="edgeStyle=orthogonalEdgeStyle;rounded=0;orthogonalLoop=1;jettySize=auto;html=1;" edge="1" parent="WIyWlLk6GJQsqaUBKTNV-1" source="I9n1Xz8z1GgVRIbq50Ev-6" target="I9n1Xz8z1GgVRIbq50Ev-7">
          <mxGeometry relative="1" as="geometry" />
        </mxCell>
        <mxCell id="I9n1Xz8z1GgVRIbq50Ev-17" style="edgeStyle=orthogonalEdgeStyle;rounded=0;orthogonalLoop=1;jettySize=auto;html=1;" edge="1" parent="WIyWlLk6GJQsqaUBKTNV-1" source="I9n1Xz8z1GgVRIbq50Ev-7" target="I9n1Xz8z1GgVRIbq50Ev-8">
          <mxGeometry relative="1" as="geometry" />
        </mxCell>
      </root>
    </mxGraphModel>
  </diagram>
</mxfile>
